<svg width="18" height="19" viewBox="0 0 18 19" fill="none" xmlns="http://www.w3.org/2000/svg">
<path d="M15.6939 14.6674C15.6939 14.9374 15.6372 15.2149 15.5168 15.4849C15.3964 15.7549 15.2405 16.0099 15.0351 16.2499C14.688 16.6549 14.3055 16.9474 13.8735 17.1349C13.4485 17.3224 12.988 17.4199 12.4922 17.4199C11.7697 17.4199 10.9976 17.2399 10.183 16.8724C9.36846 16.5049 8.55388 16.0099 7.74638 15.3874C6.9318 14.7574 6.15971 14.0599 5.42304 13.2874C4.69346 12.5074 4.03471 11.6899 3.4468 10.8349C2.86596 9.97992 2.39846 9.12492 2.05846 8.27742C1.71846 7.42242 1.54846 6.60492 1.54846 5.82492C1.54846 5.31492 1.63346 4.82742 1.80346 4.37742C1.97346 3.91992 2.24263 3.49992 2.61805 3.12492C3.07138 2.65242 3.56721 2.41992 4.09138 2.41992C4.28971 2.41992 4.48805 2.46492 4.66513 2.55492C4.8493 2.64492 5.01221 2.77992 5.13971 2.97492L6.78305 5.42742C6.91055 5.61492 7.00263 5.78742 7.06638 5.95242C7.13013 6.10992 7.16555 6.26742 7.16555 6.40992C7.16555 6.58992 7.11596 6.76992 7.0168 6.94242C6.92471 7.11492 6.79013 7.29492 6.62013 7.47492L6.08179 8.06742C6.00388 8.14992 5.96846 8.24742 5.96846 8.36742C5.96846 8.42742 5.97555 8.47992 5.98971 8.53992C6.01096 8.59992 6.03221 8.64492 6.04638 8.68992C6.17388 8.93742 6.39346 9.25992 6.70513 9.64992C7.02388 10.0399 7.36388 10.4374 7.73221 10.8349C8.11471 11.2324 8.48304 11.5999 8.85846 11.9374C9.22679 12.2674 9.53138 12.4924 9.77221 12.6274C9.80763 12.6424 9.85013 12.6649 9.89971 12.6874C9.95638 12.7099 10.013 12.7174 10.0768 12.7174C10.1972 12.7174 10.2893 12.6724 10.3672 12.5899L10.9055 12.0274C11.0826 11.8399 11.2526 11.6974 11.4155 11.6074C11.5785 11.5024 11.7414 11.4499 11.9185 11.4499C12.053 11.4499 12.1947 11.4799 12.3505 11.5474C12.5064 11.6149 12.6693 11.7124 12.8464 11.8399L15.191 13.6024C15.3751 13.7374 15.5026 13.8949 15.5805 14.0824C15.6514 14.2699 15.6939 14.4574 15.6939 14.6674Z" stroke="white" stroke-miterlimit="10"/>
</svg>
