<svg width="18" height="18" viewBox="0 0 18 18" fill="none" xmlns="http://www.w3.org/2000/svg">
<g clip-path="url(#clip0_0_13850)">
<path fill-rule="evenodd" clip-rule="evenodd" d="M18 9.00684C18 13.9774 13.9706 18.0068 9 18.0068C4.02944 18.0068 0 13.9774 0 9.00684C0 4.03627 4.02944 0.00683594 9 0.00683594C13.9706 0.00683594 18 4.03627 18 9.00684ZM9.32252 6.65103C8.44714 7.01513 6.6976 7.76873 4.07392 8.91183C3.64787 9.08125 3.42469 9.247 3.40438 9.40906C3.37004 9.68296 3.71303 9.79081 4.1801 9.93768C4.24364 9.95765 4.30947 9.97835 4.37695 10.0003C4.83648 10.1497 5.45462 10.3244 5.77597 10.3314C6.06746 10.3377 6.3928 10.2175 6.75198 9.97084C9.20337 8.31609 10.4688 7.47969 10.5482 7.46166C10.6043 7.44894 10.6819 7.43295 10.7346 7.47972C10.7872 7.52649 10.782 7.61508 10.7765 7.63884C10.7425 7.78369 9.39609 9.03541 8.69934 9.68317C8.48213 9.88511 8.32806 10.0283 8.29656 10.0611C8.226 10.1343 8.1541 10.2037 8.08499 10.2703C7.65808 10.6818 7.33793 10.9905 8.10271 11.4944C8.47023 11.7366 8.76432 11.9369 9.05772 12.1367C9.37813 12.3549 9.69772 12.5725 10.1112 12.8436C10.2166 12.9126 10.3172 12.9844 10.4152 13.0542C10.7881 13.3201 11.1231 13.5589 11.5369 13.5208C11.7774 13.4987 12.0258 13.2725 12.152 12.5981C12.4502 11.0042 13.0362 7.55068 13.1717 6.12757C13.1835 6.00288 13.1686 5.84331 13.1566 5.77327C13.1446 5.70322 13.1196 5.60342 13.0285 5.52954C12.9207 5.44204 12.7542 5.42359 12.6798 5.4249C12.3413 5.43086 11.8219 5.61145 9.32252 6.65103Z" fill="white"/>
</g>
<defs>
<clipPath id="clip0_0_13850">
<rect width="18" height="18" fill="white" transform="translate(0 0.00683594)"/>
</clipPath>
</defs>
</svg>
