<svg width="18" height="18" viewBox="0 0 18 18" fill="none" xmlns="http://www.w3.org/2000/svg">
<g clip-path="url(#clip0_0_13847)">
<path fill-rule="evenodd" clip-rule="evenodd" d="M1.2653 1.27213C0 2.53743 0 4.57389 0 8.64684V9.36684C0 13.4398 0 15.4762 1.2653 16.7415C2.5306 18.0068 4.56705 18.0068 8.64 18.0068H9.36C13.433 18.0068 15.4694 18.0068 16.7347 16.7415C18 15.4762 18 13.4398 18 9.36684V8.64684C18 4.57389 18 2.53743 16.7347 1.27213C15.4694 0.00683594 13.433 0.00683594 9.36 0.00683594H8.64C4.56705 0.00683594 2.5306 0.00683594 1.2653 1.27213ZM3.03754 5.48187C3.13504 10.1619 5.47504 12.9744 9.57754 12.9744H9.81007V10.2969C11.3176 10.4469 12.4575 11.5494 12.915 12.9744H15.045C14.46 10.8444 12.9225 9.66687 11.9625 9.21687C12.9225 8.66187 14.2725 7.31187 14.595 5.48187H12.6599C12.2399 6.96687 10.9951 8.31687 9.81007 8.44437V5.48187H7.875V10.6719C6.675 10.3719 5.16004 8.91687 5.09254 5.48187H3.03754Z" fill="white"/>
</g>
<defs>
<clipPath id="clip0_0_13847">
<rect width="18" height="18" fill="white" transform="translate(0 0.00683594)"/>
</clipPath>
</defs>
</svg>
