<svg width="18" height="19" viewBox="0 0 18 19" fill="none" xmlns="http://www.w3.org/2000/svg">
<g clip-path="url(#clip0_0_13818)">
<path d="M9.00039 0.606445C11.3598 0.609128 13.622 1.54746 15.2904 3.21582C16.959 4.88436 17.8972 7.14716 17.8998 9.50684C17.8997 11.267 17.3777 12.9877 16.3998 14.4512C15.4219 15.9147 14.0318 17.0549 12.4057 17.7285C10.7795 18.4021 8.99038 18.5787 7.26406 18.2354C5.53763 17.8919 3.95113 17.0445 2.70644 15.7998C1.4619 14.5552 0.614342 12.9694 0.270894 11.2432C-0.0725147 9.51673 0.10411 7.72685 0.77773 6.10059C1.45131 4.47446 2.59163 3.08437 4.05507 2.10645C5.51866 1.12851 7.24015 0.606456 9.00039 0.606445ZM2.51503 13.1562C2.47926 13.1562 2.44597 13.176 2.42812 13.207C2.41049 13.2379 2.41027 13.2758 2.42812 13.3066C3.43573 15.0421 5.08716 16.3102 7.02382 16.8359C7.06577 16.8473 7.11053 16.8304 7.13417 16.7939C7.15778 16.7575 7.15483 16.7094 7.12734 16.6758C6.26904 15.6257 5.56009 14.4617 5.02187 13.2168C5.00601 13.1803 4.96992 13.1562 4.93007 13.1562H2.51503ZM13.0697 13.1562C13.0299 13.1562 12.9938 13.1802 12.9779 13.2168C12.4409 14.4614 11.7333 15.6255 10.8764 16.6758C10.8489 16.7094 10.846 16.7575 10.8695 16.7939C10.8932 16.8304 10.938 16.8473 10.9799 16.8359C12.9151 16.3093 14.565 15.0413 15.5717 13.3066C15.5896 13.2757 15.5895 13.237 15.5717 13.2061C15.5538 13.1755 15.5211 13.1564 15.4857 13.1562H13.0697ZM6.58339 13.1562C6.54871 13.1563 6.51661 13.1746 6.49843 13.2041C6.48024 13.2337 6.47884 13.2708 6.49453 13.3018C7.13497 14.5672 7.95426 15.7337 8.92714 16.7656C8.94604 16.7857 8.97284 16.7979 9.00039 16.7979C9.0278 16.7977 9.05384 16.7856 9.07265 16.7656C10.0452 15.7334 10.8644 14.5669 11.5053 13.3018C11.521 13.2708 11.5196 13.2337 11.5014 13.2041C11.4832 13.1746 11.4511 13.1562 11.4164 13.1562H6.58339ZM7.05019 16.7393L6.8832 16.6924C6.84982 16.6825 6.81678 16.6705 6.78359 16.6602C6.87191 16.6877 6.9606 16.7149 7.05019 16.7393ZM11.1205 16.6924C11.0652 16.7088 11.0093 16.7241 10.9535 16.7393C11.0458 16.7142 11.137 16.6857 11.2279 16.6572C11.1921 16.6685 11.1565 16.6817 11.1205 16.6924ZM9.00039 16.6973L8.93105 16.624C8.8541 16.5413 8.77945 16.4565 8.70449 16.3721C8.80172 16.4816 8.89982 16.5906 9.00039 16.6973ZM9.06875 16.624C9.0461 16.6484 9.0232 16.673 9.00039 16.6973C9.08387 16.6087 9.16431 16.5173 9.2455 16.4268C9.18659 16.4925 9.12887 16.5593 9.06875 16.624ZM11.5629 16.543C11.501 16.5656 11.439 16.5883 11.3764 16.6094C11.439 16.5883 11.501 16.5656 11.5629 16.543ZM6.61171 16.6045C6.55244 16.5845 6.4936 16.5635 6.43496 16.542C6.4936 16.5635 6.55244 16.5845 6.61171 16.6045ZM6.30214 16.4922C6.22567 16.4625 6.14991 16.4315 6.0746 16.3994C6.14991 16.4315 6.22567 16.4625 6.30214 16.4922ZM11.8676 16.4238C11.8192 16.444 11.7709 16.4643 11.7221 16.4834C11.7709 16.4643 11.8192 16.444 11.8676 16.4238ZM5.97109 16.3545C5.89445 16.3205 5.81887 16.2845 5.74355 16.248C5.81887 16.2845 5.89445 16.3205 5.97109 16.3545ZM12.2045 16.2734C12.1595 16.2948 12.1152 16.3174 12.0697 16.3379C12.1152 16.3174 12.1595 16.2948 12.2045 16.2734ZM8.62539 16.2832C8.55152 16.1986 8.47948 16.1126 8.40761 16.0264C8.47948 16.1126 8.55152 16.1986 8.62539 16.2832ZM9.59218 16.0264C9.52019 16.1127 9.44742 16.1985 9.37343 16.2832C9.44742 16.1985 9.52019 16.1127 9.59218 16.0264ZM5.64296 16.1992C5.57486 16.165 5.50777 16.129 5.44082 16.0928C5.50777 16.129 5.57486 16.165 5.64296 16.1992ZM12.559 16.0938C12.4961 16.1278 12.4334 16.1621 12.3695 16.1943C12.4334 16.1621 12.4961 16.1278 12.559 16.0938ZM5.31679 16.0264C5.24726 15.987 5.17892 15.9458 5.11074 15.9043C5.17892 15.9458 5.24726 15.987 5.31679 16.0264ZM12.8549 15.9248C12.7981 15.959 12.7417 15.9937 12.684 16.0264C12.7417 15.9937 12.7981 15.959 12.8549 15.9248ZM7.39101 14.6543C7.66468 15.0733 7.95963 15.4781 8.2748 15.8672C7.95963 15.4781 7.66468 15.0733 7.39101 14.6543ZM10.6078 14.6543C10.3342 15.0731 10.04 15.4782 9.725 15.8672C10.04 15.4782 10.3342 15.0731 10.6078 14.6543ZM5.01601 15.8467C4.94497 15.802 4.87551 15.755 4.80605 15.708C4.87551 15.755 4.94497 15.802 5.01601 15.8467ZM13.1713 15.7246C13.1131 15.7637 13.0548 15.8024 12.9955 15.8398C13.0548 15.8024 13.1131 15.7637 13.1713 15.7246ZM4.43398 15.4414C4.34883 15.3759 4.26529 15.3084 4.183 15.2393C4.26529 15.3084 4.34883 15.3759 4.43398 15.4414ZM13.5023 15.4893C13.4303 15.5435 13.3576 15.5968 13.2836 15.6484C13.3576 15.5968 13.4303 15.5435 13.5023 15.4893ZM13.7377 15.3037C13.6841 15.3475 13.6304 15.3913 13.5756 15.4336C13.6304 15.3913 13.6841 15.3475 13.7377 15.3037ZM3.63613 14.7314C3.75075 14.8489 3.86975 14.9617 3.9916 15.0713C3.86975 14.9617 3.75075 14.8489 3.63613 14.7314ZM14.3705 14.7246C14.3438 14.752 14.3165 14.7787 14.2894 14.8057C14.3165 14.7787 14.3438 14.752 14.3705 14.7246ZM3.5248 14.6133C3.47827 14.5635 3.43134 14.514 3.38613 14.4629C3.43134 14.514 3.47827 14.5635 3.5248 14.6133ZM3.30996 14.373C3.25556 14.3096 3.20117 14.246 3.14882 14.1807C3.20117 14.246 3.25556 14.3096 3.30996 14.373ZM14.8519 14.1807C14.7995 14.2462 14.7444 14.3094 14.6898 14.373C14.7444 14.3094 14.7995 14.2462 14.8519 14.1807ZM15.06 13.9062C15.0174 13.9648 14.9733 14.022 14.9291 14.0791C14.9733 14.022 15.0174 13.9648 15.06 13.9062ZM3.03847 14.0371C3.00751 13.9965 2.97586 13.9564 2.9457 13.915C2.97586 13.9564 3.00751 13.9965 3.03847 14.0371ZM11.1684 13.7236C11.1131 13.8236 11.055 13.9219 10.9975 14.0205C11.055 13.9219 11.1131 13.8236 11.1684 13.7236ZM6.96816 13.9639C6.92692 13.8924 6.88516 13.8212 6.84511 13.749C6.88516 13.8212 6.92692 13.8924 6.96816 13.9639ZM12.8588 13.7227C12.8344 13.7742 12.8076 13.8247 12.7826 13.876C12.8107 13.8183 12.8402 13.7612 12.8676 13.7031L12.8588 13.7227ZM15.2602 13.6172C15.2309 13.6617 15.2005 13.7053 15.1703 13.749C15.2005 13.7053 15.2309 13.6617 15.2602 13.6172ZM2.8246 13.7432C2.79622 13.7019 2.76725 13.661 2.73964 13.6191C2.76725 13.661 2.79622 13.7019 2.8246 13.7432ZM11.4164 13.2568C11.3996 13.2901 11.3827 13.3233 11.3656 13.3564C11.3189 13.447 11.2697 13.5364 11.2211 13.626C11.2875 13.5037 11.3535 13.3811 11.4164 13.2568ZM6.58339 13.2568C6.63714 13.363 6.69412 13.4675 6.75039 13.5723C6.71177 13.5004 6.67161 13.429 6.63417 13.3564L6.58339 13.2568ZM2.63613 13.4551C2.61559 13.4221 2.59368 13.3898 2.57363 13.3564C2.55379 13.3235 2.53439 13.2902 2.51503 13.2568C2.55398 13.3239 2.59525 13.3894 2.63613 13.4551ZM15.4857 13.2568C15.4663 13.2903 15.4461 13.3233 15.4262 13.3564C15.415 13.375 15.4023 13.3927 15.391 13.4111C15.4225 13.3597 15.4554 13.3091 15.4857 13.2568ZM1.84609 7.15625C1.80243 7.15625 1.7635 7.18491 1.75039 7.22656C1.28331 8.71055 1.28335 10.3021 1.75039 11.7861C1.7635 11.8278 1.80243 11.8564 1.84609 11.8564H4.42519C4.45616 11.8564 4.4854 11.8419 4.50429 11.8174C4.52319 11.7928 4.52981 11.7604 4.52187 11.7305C4.32974 11.0047 4.22979 10.2576 4.225 9.50684C4.22976 8.75587 4.32967 8.00819 4.52187 7.28223C4.52981 7.25222 4.52322 7.21991 4.50429 7.19531C4.4854 7.17081 4.45613 7.15631 4.42519 7.15625H1.84609ZM5.98183 7.15625C5.9383 7.15632 5.90025 7.18505 5.8871 7.22656C5.65361 7.96403 5.53105 8.73234 5.5248 9.50586V9.50684C5.53104 10.2804 5.65358 11.0496 5.8871 11.7871C5.90042 11.8283 5.9385 11.8564 5.98183 11.8564H12.018C12.0614 11.8564 12.1004 11.8285 12.1137 11.7871C12.3472 11.0496 12.4687 10.2804 12.475 9.50684V9.50586C12.4688 8.73241 12.3471 7.96396 12.1137 7.22656C12.1005 7.185 12.0616 7.15625 12.018 7.15625H5.98183ZM13.5746 7.15625C13.5437 7.15637 13.5144 7.17082 13.4955 7.19531C13.4766 7.2199 13.47 7.25224 13.4779 7.28223C13.6701 8.00821 13.77 8.75586 13.7748 9.50684C13.77 10.2576 13.6701 11.0047 13.4779 11.7305C13.47 11.7604 13.4767 11.7928 13.4955 11.8174C13.5144 11.8419 13.5437 11.8563 13.5746 11.8564H16.1547C16.2052 11.8562 16.2468 11.8183 16.2533 11.7695C16.7151 10.2903 16.7137 8.70499 16.2484 7.22656C16.2353 7.18491 16.1964 7.15625 16.1527 7.15625H13.5746ZM16.182 11.6602C16.1729 11.6906 16.1642 11.7216 16.1547 11.752C16.1542 11.7535 16.1532 11.7553 16.1527 11.7568C16.1786 11.6747 16.202 11.5916 16.225 11.5088C16.211 11.5593 16.1971 11.6099 16.182 11.6602ZM16.2826 11.2852C16.2701 11.3364 16.2572 11.3875 16.2435 11.4385C16.2572 11.3875 16.2701 11.3364 16.2826 11.2852ZM16.3422 11.0215C16.3328 11.0667 16.3241 11.1121 16.3139 11.1572C16.3241 11.1121 16.3328 11.0667 16.3422 11.0215ZM4.23769 10.873C4.19505 10.6064 4.16541 10.3379 4.14687 10.0684C4.16541 10.3379 4.19505 10.6064 4.23769 10.873ZM16.3891 10.7715C16.3834 10.8047 16.3786 10.838 16.3725 10.8711C16.3786 10.838 16.3834 10.8047 16.3891 10.7715ZM16.4398 10.4287C16.4332 10.4824 16.4272 10.5362 16.4193 10.5898C16.4272 10.5362 16.4332 10.4824 16.4398 10.4287ZM16.4701 10.1377C16.465 10.1986 16.4602 10.2595 16.4535 10.3203C16.4602 10.2595 16.465 10.1986 16.4701 10.1377ZM13.8617 9.91113C13.8574 9.99553 13.8528 10.0799 13.8461 10.1641C13.8528 10.0799 13.8574 9.99553 13.8617 9.91113ZM16.4857 9.91211C16.4832 9.95799 16.4822 10.004 16.4789 10.0498C16.4822 10.004 16.4832 9.95799 16.4857 9.91211ZM4.13125 9.77832C4.13195 9.79754 4.13335 9.81673 4.13417 9.83594C4.13353 9.82095 4.13181 9.80601 4.13125 9.79102V9.77832ZM4.14003 9.06055C4.13174 9.20897 4.12632 9.358 4.12539 9.50684C4.12632 9.358 4.13174 9.20897 4.14003 9.06055ZM16.4945 9.2832C16.4965 9.35025 16.4973 9.4173 16.4975 9.48438C16.4973 9.4173 16.4965 9.35025 16.4945 9.2832ZM16.4838 9.06055C16.4864 9.10515 16.4897 9.1497 16.4916 9.19434C16.4897 9.1497 16.4864 9.10515 16.4838 9.06055ZM16.4193 8.42285C16.4435 8.58803 16.462 8.7538 16.475 8.91992C16.462 8.7538 16.4435 8.58803 16.4193 8.42285ZM4.23769 8.13965C4.20835 8.32309 4.18533 8.50747 4.16738 8.69238C4.18533 8.50747 4.20835 8.32309 4.23769 8.13965ZM7.02382 2.17676C5.08719 2.70246 3.43573 3.97065 2.42812 5.70605C2.41016 5.73699 2.41027 5.77564 2.42812 5.80664C2.446 5.8375 2.47936 5.85645 2.51503 5.85645H4.93007C4.96996 5.85645 5.00604 5.83251 5.02187 5.7959C5.56011 4.55099 6.26901 3.38704 7.12734 2.33691C7.15485 2.30326 7.15782 2.25522 7.13417 2.21875C7.11052 2.18235 7.06572 2.16541 7.02382 2.17676ZM9.00039 2.21582C8.97284 2.21582 8.94604 2.22702 8.92714 2.24707C7.95461 3.27928 7.13537 4.44579 6.49453 5.71094C6.47884 5.74191 6.48029 5.779 6.49843 5.80859C6.51661 5.83817 6.54868 5.85641 6.58339 5.85645H11.4164C11.4511 5.85645 11.4832 5.83819 11.5014 5.80859C11.5196 5.779 11.521 5.74193 11.5053 5.71094C10.8648 4.44555 10.0456 3.27899 9.07265 2.24707C9.05385 2.22712 9.02779 2.21593 9.00039 2.21582ZM10.9799 2.17676C10.938 2.16544 10.8932 2.18235 10.8695 2.21875C10.8459 2.2552 10.8489 2.30324 10.8764 2.33691C11.7334 3.38725 12.4408 4.55123 12.9779 5.7959C12.9937 5.83255 13.0298 5.85645 13.0697 5.85645H15.4857C15.5212 5.85627 15.5539 5.83731 15.5717 5.80664C15.5895 5.77565 15.5896 5.73699 15.5717 5.70605C14.5649 3.97149 12.9151 2.70334 10.9799 2.17676ZM11.3656 5.65625C11.3828 5.68951 11.3995 5.72343 11.4164 5.75684C11.3442 5.61418 11.2685 5.47309 11.1918 5.33301C11.2506 5.44027 11.3095 5.54747 11.3656 5.65625ZM15.4262 5.65625C15.4461 5.68941 15.4663 5.72333 15.4857 5.75684C15.4356 5.67048 15.3818 5.58593 15.3285 5.50195C15.3611 5.55329 15.3948 5.60402 15.4262 5.65625ZM12.7465 5.06348C12.8594 5.29182 12.9687 5.52261 13.0697 5.75684C12.9687 5.52261 12.8594 5.29182 12.7465 5.06348ZM6.58339 5.75684C6.60031 5.72344 6.61701 5.6895 6.63417 5.65625C6.68102 5.5655 6.731 5.47642 6.77968 5.38672C6.71315 5.50929 6.64647 5.6323 6.58339 5.75684ZM2.51503 5.75684L2.57363 5.65625C2.60504 5.60403 2.63869 5.55328 2.67128 5.50195C2.61799 5.58589 2.56515 5.67053 2.51503 5.75684ZM15.1478 5.23145C15.1884 5.28961 15.229 5.3478 15.268 5.40723C15.229 5.3478 15.1884 5.28961 15.1478 5.23145ZM2.73867 5.39453C2.77294 5.34252 2.80964 5.29225 2.84511 5.24121C2.80964 5.29225 2.77294 5.34252 2.73867 5.39453ZM10.932 4.87793C11.0093 5.00773 11.0853 5.13829 11.1586 5.27051C11.0853 5.13829 11.0093 5.00773 10.932 4.87793ZM6.85195 5.25195C6.92019 5.12929 6.99121 5.00828 7.06289 4.8877C6.99121 5.00828 6.92019 5.12929 6.85195 5.25195ZM2.93789 5.10742C2.99221 5.03277 3.04897 4.96012 3.10585 4.8877C3.04897 4.96012 2.99221 5.03277 2.93789 5.10742ZM14.9252 4.92773C14.9707 4.98648 15.0161 5.04528 15.06 5.10547C15.0161 5.04528 14.9707 4.98648 14.9252 4.92773ZM3.15273 4.82617C3.21569 4.74769 3.28115 4.67144 3.34707 4.5957C3.28115 4.67144 3.21569 4.74769 3.15273 4.82617ZM14.682 4.62988C14.7374 4.69432 14.7928 4.7588 14.8461 4.8252C14.7928 4.7588 14.7374 4.69432 14.682 4.62988ZM7.84316 3.70703C7.7095 3.88936 7.5796 4.07439 7.45449 4.2627C7.5796 4.07439 7.7095 3.88936 7.84316 3.70703ZM10.6801 4.46973C10.7533 4.58412 10.8258 4.69901 10.8959 4.81543C10.8258 4.69901 10.7533 4.58412 10.6801 4.46973ZM14.4125 4.33203C14.4811 4.40372 14.5488 4.47631 14.6146 4.55078C14.5488 4.47631 14.4811 4.40372 14.4125 4.33203ZM3.38613 4.54883C3.44357 4.48391 3.50333 4.42121 3.56289 4.3584C3.50333 4.42121 3.44357 4.48391 3.38613 4.54883ZM4.15371 3.79688C3.99796 3.929 3.84921 4.06925 3.70449 4.21387C3.84921 4.06925 3.99796 3.929 4.15371 3.79688ZM4.38417 3.61133C4.39746 3.60093 4.40988 3.58941 4.42324 3.5791C4.40988 3.58941 4.39746 3.60093 4.38417 3.61133ZM13.5756 3.57812C13.5897 3.58903 13.6035 3.60032 13.6176 3.61133C13.6035 3.60032 13.5897 3.58903 13.5756 3.57812ZM4.58144 3.46289C4.62732 3.42934 4.67249 3.39482 4.71914 3.3623C4.67249 3.39482 4.62732 3.42934 4.58144 3.46289ZM13.2836 3.36328C13.3298 3.39556 13.3748 3.42959 13.4203 3.46289C13.3748 3.42959 13.3298 3.39556 13.2836 3.36328ZM4.80996 3.30176C4.88273 3.25258 4.95518 3.20287 5.02968 3.15625C4.95518 3.20287 4.88273 3.25258 4.80996 3.30176ZM12.9955 3.17188C13.046 3.20375 13.0952 3.23745 13.1449 3.27051C13.0952 3.23745 13.046 3.20375 12.9955 3.17188ZM5.14589 3.08789C5.19918 3.05585 5.25194 3.02291 5.30605 2.99219C5.25194 3.02291 5.19918 3.05585 5.14589 3.08789ZM12.6781 2.98242C12.7266 3.00978 12.7739 3.03898 12.8217 3.06738C12.7739 3.03898 12.7266 3.00978 12.6781 2.98242ZM8.42519 2.96582C8.49188 2.8861 8.55797 2.80586 8.62636 2.72754C8.55797 2.80586 8.49188 2.8861 8.42519 2.96582ZM9.37343 2.72852C9.43134 2.7948 9.48765 2.8624 9.54433 2.92969C9.48765 2.8624 9.43134 2.7948 9.37343 2.72852ZM12.3695 2.81738C12.4295 2.84767 12.4882 2.88027 12.5473 2.91211C12.4882 2.88027 12.4295 2.84767 12.3695 2.81738ZM5.46425 2.90625C5.5235 2.87445 5.58281 2.84273 5.64296 2.8125C5.58281 2.84273 5.5235 2.87445 5.46425 2.90625ZM5.74843 2.76172C5.82063 2.72683 5.89281 2.69179 5.96621 2.65918C5.89281 2.69179 5.82063 2.72683 5.74843 2.76172ZM12.0443 2.66406C12.1048 2.69104 12.1644 2.71953 12.224 2.74805C12.1644 2.71953 12.1048 2.69104 12.0443 2.66406ZM8.73085 2.61035C8.79712 2.53608 8.86324 2.46163 8.93105 2.38867C8.95379 2.36421 8.97748 2.33974 9.00039 2.31543C8.90907 2.41234 8.81943 2.51108 8.73085 2.61035ZM11.7162 2.52637C11.7779 2.55046 11.8389 2.5759 11.8998 2.60156C11.8389 2.5759 11.7779 2.55046 11.7162 2.52637ZM6.10488 2.59961C6.16284 2.57523 6.22102 2.55127 6.27968 2.52832C6.22102 2.55127 6.16284 2.57523 6.10488 2.59961ZM9.06875 2.38867C9.11727 2.44085 9.16359 2.495 9.21132 2.54785C9.14122 2.47023 9.07219 2.39159 9.00039 2.31543L9.06875 2.38867ZM11.3578 2.39746C11.4299 2.4215 11.5015 2.44651 11.5727 2.47266C11.5015 2.44651 11.4299 2.4215 11.3578 2.39746ZM6.45058 2.46484C6.50318 2.44572 6.55567 2.42618 6.60878 2.4082C6.55567 2.42618 6.50318 2.44572 6.45058 2.46484ZM11.1205 2.32129C11.1562 2.3319 11.1914 2.34434 11.2269 2.35547L10.9535 2.27344L11.1205 2.32129ZM6.81191 2.34375C6.83568 2.33645 6.85933 2.32836 6.8832 2.32129C6.9386 2.30487 6.9943 2.28861 7.05019 2.27344C6.97019 2.29515 6.8909 2.31949 6.81191 2.34375ZM4.71914 15.6494C4.62622 15.5846 4.5346 15.5181 4.44472 15.4492C4.5346 15.5181 4.62622 15.5846 4.71914 15.6494ZM14.6146 14.4619C14.5442 14.5416 14.4714 14.6188 14.3978 14.6953C14.4714 14.6188 14.5442 14.5416 14.6146 14.4619ZM4.26601 11.0381C4.25617 10.9831 4.2465 10.9282 4.23769 10.873C4.2465 10.9282 4.25617 10.9831 4.26601 11.0381ZM13.7982 10.6201C13.79 10.6831 13.7805 10.7458 13.7709 10.8086C13.7805 10.7458 13.79 10.6831 13.7982 10.6201ZM13.7328 7.96973C13.743 8.02625 13.7521 8.08295 13.7611 8.13965C13.7521 8.08295 13.743 8.02625 13.7328 7.96973ZM7.1039 4.81543C7.14751 4.74299 7.19382 4.67224 7.23867 4.60059C7.19382 4.67224 7.14751 4.74299 7.1039 4.81543ZM8.18984 3.25293C8.11756 3.3439 8.04508 3.43471 7.975 3.52734C8.04508 3.43471 8.11756 3.3439 8.18984 3.25293ZM10.4418 4.11133C10.5021 4.19962 10.5632 4.28735 10.6215 4.37695C10.5632 4.28735 10.5021 4.19962 10.4418 4.11133ZM14.1352 4.05566C14.2166 4.13231 14.2964 4.21071 14.3744 4.29102C14.2964 4.21071 14.2166 4.13231 14.1352 4.05566Z" fill="white"/>
</g>
<defs>
<clipPath id="clip0_0_13818">
<rect width="18" height="18" fill="white" transform="translate(0 0.506836)"/>
</clipPath>
</defs>
</svg>
