<svg width="18" height="19" viewBox="0 0 18 19" fill="none" xmlns="http://www.w3.org/2000/svg">
<path d="M0 18.5068L1.26525 13.8846C0.484499 12.5316 0.0742498 10.9978 0.0749998 9.42509C0.0772498 4.50809 4.07849 0.506836 8.99473 0.506836C11.3805 0.507586 13.62 1.43684 15.3045 3.12284C16.9882 4.80884 17.9152 7.04984 17.9145 9.43334C17.9122 14.3511 13.911 18.3523 8.99473 18.3523C7.50223 18.3516 6.03149 17.9773 4.72874 17.2663L0 18.5068ZM4.94774 15.6516C6.20474 16.3978 7.40473 16.8448 8.99173 16.8456C13.0777 16.8456 16.4062 13.5201 16.4085 9.43184C16.41 5.33534 13.0972 2.01434 8.99773 2.01284C4.90874 2.01284 1.5825 5.33834 1.581 9.42584C1.58025 11.0946 2.06925 12.3441 2.89049 13.6513L2.14125 16.3873L4.94774 15.6516ZM13.488 11.5536C13.4325 11.4606 13.284 11.4051 13.0605 11.2933C12.8377 11.1816 11.742 10.6423 11.5372 10.5681C11.3332 10.4938 11.1847 10.4563 11.0355 10.6798C10.887 10.9026 10.4595 11.4051 10.3297 11.5536C10.2 11.7021 10.0695 11.7208 9.84673 11.6091C9.62398 11.4973 8.90548 11.2626 8.05423 10.5028C7.39198 9.91184 6.94423 9.18209 6.81448 8.95859C6.68473 8.73584 6.80098 8.61509 6.91198 8.50409C7.01248 8.40434 7.13473 8.24384 7.24648 8.11334C7.35973 7.98434 7.39648 7.89134 7.47148 7.74209C7.54573 7.59359 7.50898 7.46309 7.45273 7.35134C7.39648 7.24034 6.95098 6.14309 6.76573 5.69684C6.58424 5.26259 6.40049 5.32109 6.26399 5.31434L5.83649 5.30684C5.68799 5.30684 5.44649 5.36234 5.24249 5.58584C5.03849 5.80934 4.46249 6.34784 4.46249 7.44509C4.46249 8.54234 5.26124 9.60209 5.37224 9.75059C5.48399 9.89909 6.94348 12.1506 9.17923 13.1158C9.71098 13.3453 10.1265 13.4826 10.4497 13.5853C10.9837 13.7548 11.4697 13.7308 11.8537 13.6738C12.282 13.6101 13.1722 13.1346 13.3582 12.6141C13.5442 12.0928 13.5442 11.6466 13.488 11.5536Z" fill="white"/>
</svg>
