<svg width="18" height="18" viewBox="0 0 18 18" fill="none" xmlns="http://www.w3.org/2000/svg">
<path d="M9.00391 2.6748C9.04786 2.67481 12.7974 2.6757 15.2998 2.85742C15.6513 2.89961 16.418 2.90313 17.1035 3.62012C17.6405 4.1606 17.8175 5.38632 17.8203 5.40625C17.8203 5.40625 18 6.86582 18 8.32129V9.68457C18 11.1436 17.8203 12.5996 17.8203 12.5996C17.8175 12.6195 17.6405 13.8453 17.1035 14.3857C16.418 15.1027 15.6513 15.1063 15.2998 15.1484C12.7826 15.3277 9 15.335 9 15.335C9 15.335 4.32031 15.2924 2.87891 15.1553C2.47794 15.078 1.57791 15.1027 0.892578 14.3857C0.359064 13.8453 0.182537 12.6195 0.179688 12.5996C0.179688 12.5996 0 11.14 0 9.68457V8.32129C0 6.86582 0.182617 5.40625 0.182617 5.40625C0.184908 5.3899 0.358688 4.16141 0.896484 3.62012C1.58198 2.90313 2.34867 2.89961 2.7002 2.85742C5.2026 2.6757 8.95214 2.67481 8.99609 2.6748H9.00391ZM6.25391 12.2646L12.8906 8.82324L6.25391 5.3584V12.2646Z" fill="white"/>
</svg>
