<svg width="97" height="98" viewBox="0 0 97 98" fill="none" xmlns="http://www.w3.org/2000/svg">
<path fill-rule="evenodd" clip-rule="evenodd" d="M4 4.93799H8V90.938H93.5V94.938H4V4.93799Z" fill="#6984A1"/>
<path fill-rule="evenodd" clip-rule="evenodd" d="M69.5 16.438H93.5V86.438H69.5V16.438ZM73.5 20.438V82.438H89.5V20.438H73.5Z" fill="#6984A1"/>
<path fill-rule="evenodd" clip-rule="evenodd" d="M41.5 36.438H65.5V86.438H41.5V36.438ZM45.5 40.438V82.438H61.5V40.438H45.5Z" fill="#6984A1"/>
<path fill-rule="evenodd" clip-rule="evenodd" d="M13.5 53.438H37.5V86.438H13.5V53.438ZM17.5 57.438V82.438H33.5V57.438H17.5Z" fill="#6984A1"/>
<path d="M58.4121 4.93794L38.4121 4.93794L38.4121 8.93619L51.6052 8.93619L15.672 44.8529L18.5 47.6767L54.4121 11.7874L54.4121 24.9371L58.4121 24.9371L58.4121 4.93794Z" fill="#6984A1"/>
</svg>
