<svg width="97" height="98" viewBox="0 0 97 98" fill="none" xmlns="http://www.w3.org/2000/svg">
<path fill-rule="evenodd" clip-rule="evenodd" d="M10 77.938H45V94.938H10V77.938ZM14 81.938V90.938H41V81.938H14Z" fill="#6984A1"/>
<path fill-rule="evenodd" clip-rule="evenodd" d="M52 66.938H95V84.938H52V66.938ZM56 70.938V80.938H91V70.938H56Z" fill="#6984A1"/>
<path fill-rule="evenodd" clip-rule="evenodd" d="M70 53.3075V25.938H74V53.2595L85.0872 67.7211L81.9128 70.1549L72.0733 57.3208L63.1384 70.0849L59.8615 67.7911L70 53.3075Z" fill="#6984A1"/>
<path fill-rule="evenodd" clip-rule="evenodd" d="M20.9412 4.93799H33.6853L89 15.2772V27.938H35.5V79.938H31.5V8.93799H23.5V79.938H19.5V27.938H3V15.8115L20.9412 4.93799ZM19.5 23.938V18.938H7V23.938H19.5ZM12.1588 14.938H19.5V10.4887L12.1588 14.938ZM35.5 9.34646L65.4147 14.938H35.5V9.34646ZM35.5 18.938V23.938H85V18.938H35.5Z" fill="#6984A1"/>
</svg>
