<svg width="30" height="31" viewBox="0 0 30 31" fill="none" xmlns="http://www.w3.org/2000/svg">
<path fill-rule="evenodd" clip-rule="evenodd" d="M5.35202 12.5511H24.2875V19.4754H22.9471V13.8585H6.69242V24.4322H19.3313V25.7395H5.35202V12.5511Z" fill="#6984A1"/>
<path fill-rule="evenodd" clip-rule="evenodd" d="M14.82 5.1333L25.3673 12.6774L24.971 13.8582H4.66896L4.27263 12.6774L14.82 5.1333ZM6.71619 12.5509H22.9238L14.82 6.75453L6.71619 12.5509Z" fill="#6984A1"/>
<path fill-rule="evenodd" clip-rule="evenodd" d="M21.8305 19.7985C20.2629 19.7985 18.9922 21.0379 18.9922 22.5668C18.9922 24.0957 20.2629 25.3352 21.8305 25.3352C23.398 25.3352 24.6688 24.0957 24.6688 22.5668C24.6688 21.0379 23.398 19.7985 21.8305 19.7985ZM17.6518 22.5668C17.6518 20.3159 19.5226 18.4911 21.8305 18.4911C24.1383 18.4911 26.0092 20.3159 26.0092 22.5668C26.0092 24.8178 24.1383 26.6425 21.8305 26.6425C19.5226 26.6425 17.6518 24.8178 17.6518 22.5668Z" fill="#6984A1"/>
<path fill-rule="evenodd" clip-rule="evenodd" d="M21.1792 24.2536L21.1792 20.6415L22.5196 20.6415L22.5196 24.2536L21.1792 24.2536Z" fill="#6984A1"/>
<path fill-rule="evenodd" clip-rule="evenodd" d="M23.7804 23.1307H19.8821V21.8234H23.7804V23.1307Z" fill="#6984A1"/>
<path fill-rule="evenodd" clip-rule="evenodd" d="M8.96231 18.9312H20.1219V20.2385H10.3027V24.4316H18.7601V25.739H8.96231V18.9312Z" fill="#6984A1"/>
<path fill-rule="evenodd" clip-rule="evenodd" d="M28.6596 2.27404H1.3404V29.6593H28.6596V2.27404ZM0 0.966675V30.9667H30V0.966675H0Z" fill="#6984A1"/>
</svg>
