<svg width="31" height="31" viewBox="0 0 31 31" fill="none" xmlns="http://www.w3.org/2000/svg">
<path fill-rule="evenodd" clip-rule="evenodd" d="M29.4155 2.24535H2.09626V29.6306H29.4155V2.24535ZM0.755859 0.937988V30.938H30.7559V0.937988H0.755859Z" fill="#6984A1"/>
<path d="M24.3457 14.1967L25.1785 13.1146L11.3433 7.72144L8.29657 15.1569L13.5257 17.1953L12.8828 18.7591C12.8314 18.7552 12.7795 18.7527 12.7271 18.7527C11.8364 18.7527 11.0795 19.3203 10.8157 20.1041H8.81899V17.3965H5.03424V24.1552H8.81899V21.3255H10.8156C11.0795 22.1092 11.8364 22.6768 12.7271 22.6768C13.8363 22.6768 14.7387 21.7966 14.7387 20.7147C14.7387 20.1214 14.4669 19.5891 14.0388 19.229L14.6886 17.6485L20.0734 19.7476L20.9063 18.6654L24.428 20.0382L26.4807 15.0289L24.3457 14.1967ZM7.56672 22.9337H6.28655V18.618H7.56672V22.9337ZM12.7271 21.4555C12.3083 21.4555 11.9677 21.1232 11.9677 20.7148C11.9677 20.3064 12.3083 19.9741 12.7271 19.9741C13.1458 19.9741 13.4865 20.3064 13.4865 20.7148C13.4864 21.1232 13.1458 21.4555 12.7271 21.4555ZM19.6477 18.2663L9.92419 14.4759L12.0414 9.30895L23.1953 13.6569L19.6477 18.2663ZM23.7298 18.4508L21.685 17.6537L23.567 15.2085L24.853 15.7098L23.7298 18.4508Z" fill="#6984A1"/>
<path d="M18.5196 15.7625L18.0549 16.8967L19.2178 17.35L19.6825 16.2158L18.5196 15.7625Z" fill="#6984A1"/>
</svg>
