<svg width="30" height="31" viewBox="0 0 30 31" fill="none" xmlns="http://www.w3.org/2000/svg">
<path d="M19.9617 9.43213C20.9751 9.43213 21.7444 9.71278 22.2699 10.2741C22.7953 10.8354 23.058 11.6102 23.058 12.5986V13.0012C23.058 13.6602 22.9392 14.2153 22.7015 14.6668C22.4638 15.1183 22.0822 15.4417 21.5568 15.6369C22.1073 15.8443 22.4951 16.186 22.7203 16.6619C22.9454 17.1377 23.058 17.699 23.058 18.3458V19.2975C23.058 20.2859 22.7953 21.0668 22.2699 21.6403C21.757 22.2138 20.9876 22.5006 19.9617 22.5006C18.9359 22.5006 18.1602 22.2138 17.6348 21.6403C17.1219 21.0668 16.8654 20.2859 16.8654 19.2975V18.3458C16.8654 17.6868 16.978 17.1255 17.2032 16.6619C17.4284 16.1982 17.8224 15.8565 18.3854 15.6369C17.8475 15.4295 17.4596 15.1061 17.2219 14.6668C16.9842 14.2153 16.8654 13.6602 16.8654 13.0012V12.5986C16.8654 11.6102 17.1281 10.8354 17.6535 10.2741C18.179 9.71278 18.9484 9.43213 19.9617 9.43213ZM19.9617 10.7133C19.4363 10.7133 19.0297 10.872 18.7419 11.1892C18.4542 11.4943 18.3103 11.9763 18.3103 12.6352V13.2575C18.3103 13.8798 18.4542 14.3374 18.7419 14.6302C19.0297 14.9109 19.4363 15.0512 19.9617 15.0512C20.4872 15.0512 20.8937 14.9109 21.1815 14.6302C21.4692 14.3374 21.6131 13.8798 21.6131 13.2575V12.6352C21.6131 11.9763 21.4692 11.4943 21.1815 11.1892C20.8937 10.872 20.4872 10.7133 19.9617 10.7133ZM19.9617 16.3324C18.8608 16.3324 18.3103 16.9486 18.3103 18.181V19.2609C18.3103 19.9198 18.4542 20.4079 18.7419 20.7252C19.0297 21.0424 19.4363 21.201 19.9617 21.201C20.4872 21.201 20.8875 21.0424 21.1627 20.7252C21.4505 20.4079 21.6006 19.9198 21.6131 19.2609V18.181C21.6131 16.9486 21.0626 16.3324 19.9617 16.3324Z" fill="#6984A1"/>
<path fill-rule="evenodd" clip-rule="evenodd" d="M28.6596 2.27416H1.3404V29.6594H28.6596V2.27416ZM0 0.966797V30.9668H30V0.966797H0Z" fill="#6984A1"/>
<path fill-rule="evenodd" clip-rule="evenodd" d="M6.54799 9.51717L9.63145 6.53602V25.3966L6.54799 22.4154L5.60435 23.3439L10.3005 27.8843L10.3046 27.8803L10.3087 27.8843L15.0048 23.3439L14.0612 22.4154L10.9719 25.4023V6.53033L14.0612 9.51717L15.0048 8.58867L10.3087 4.04834L10.3046 4.05236L10.3005 4.04834L5.60435 8.58867L6.54799 9.51717Z" fill="#6984A1"/>
</svg>
