<svg width="31" height="32" viewBox="0 0 31 32" fill="none" xmlns="http://www.w3.org/2000/svg">
<path fill-rule="evenodd" clip-rule="evenodd" d="M28.885 1.81774H1.35094V30.1159H28.885V1.81774ZM0 0.466797V31.4668H30.236V0.466797H0Z" fill="#6984A1"/>
<path fill-rule="evenodd" clip-rule="evenodd" d="M4.88594 6.35278H25.1141V11.1239H4.88594V6.35278ZM6.28594 7.75278V9.72388H23.7141V7.75278H6.28594Z" fill="#6984A1"/>
<path fill-rule="evenodd" clip-rule="evenodd" d="M6.28594 25.1809V9.39648H4.88594V26.5809H25.1141V9.39648H23.7141V25.1809H6.28594Z" fill="#6984A1"/>
<path fill-rule="evenodd" clip-rule="evenodd" d="M20.8533 25.8809V10.4238H22.2533V25.8809H20.8533Z" fill="#6984A1"/>
<path fill-rule="evenodd" clip-rule="evenodd" d="M9.20856 10.4238V25.8809H7.80856V10.4238H9.20856Z" fill="#6984A1"/>
<path fill-rule="evenodd" clip-rule="evenodd" d="M22.0703 14.338H7.92969V12.938H22.0703V14.338Z" fill="#6984A1"/>
<path fill-rule="evenodd" clip-rule="evenodd" d="M22.0703 17.4537H7.92969V16.0537H22.0703V17.4537Z" fill="#6984A1"/>
<path fill-rule="evenodd" clip-rule="evenodd" d="M22.0703 20.5697H7.92969V19.1697H22.0703V20.5697Z" fill="#6984A1"/>
<path fill-rule="evenodd" clip-rule="evenodd" d="M22.0703 23.6856H7.92969V22.2856H22.0703V23.6856Z" fill="#6984A1"/>
</svg>
