<svg width="31" height="31" viewBox="0 0 31 31" fill="none" xmlns="http://www.w3.org/2000/svg">
<path fill-rule="evenodd" clip-rule="evenodd" d="M29.4155 2.24535H2.09626V29.6306H29.4155V2.24535ZM0.755859 0.937988V30.938H30.7559V0.937988H0.755859Z" fill="#6984A1"/>
<path d="M18.5887 12.955L20.8309 6.88706C20.9011 6.69234 21.1423 6.03906 21.1423 6.03906C21.1423 6.03906 20.4412 6.03906 20.2304 6.03906H13.8426C13.7112 6.03906 13.415 6.03906 13.415 6.03906C13.415 6.03906 13.2962 6.31588 13.2485 6.4348L9.41579 15.857C9.33914 16.0518 9.06836 16.7176 9.06836 16.7176C9.06836 16.7176 9.79906 16.7176 10.0099 16.7176H13.1144L11.9326 25.43C11.8943 25.7127 11.5967 27.8277 11.5967 27.8277C11.5967 27.8277 12.8975 26.1278 13.0824 25.8823L22.0254 13.9475C22.1659 13.759 22.7523 12.955 22.7523 12.955C21.3643 12.9463 19.9792 12.955 18.5887 12.955ZM13.5296 23.175L14.475 16.1774C14.5005 15.9952 14.5791 15.4676 14.5791 15.4676C14.5791 15.4676 14.0278 15.4676 13.8426 15.4676H10.9553L14.2769 7.30164H19.3233L17.0812 13.3696C17.0109 13.5643 16.7498 14.2176 16.7498 14.2176C16.7498 14.2176 17.4709 14.2176 17.6817 14.2176H20.2496L13.536 23.1812L13.5296 23.175Z" fill="#6984A1"/>
</svg>
