<svg width="31" height="31" viewBox="0 0 31 31" fill="none" xmlns="http://www.w3.org/2000/svg">
<path fill-rule="evenodd" clip-rule="evenodd" d="M29.4155 2.24535H2.09626V29.6306H29.4155V2.24535ZM0.755859 0.937988V30.938H30.7559V0.937988H0.755859Z" fill="#6984A1"/>
<path d="M20.5406 7.81872L20.668 7.4718L24.6456 8.10935L24.861 6.83138L19.7913 6.01878L19.2905 7.38176C18.737 7.38846 18.2092 7.6316 17.8523 8.04439L16.1746 7.45799C13.8872 6.6585 11.3593 7.82312 10.5396 10.0542L10.5272 10.0917C10.4973 10.1918 10.3514 10.691 10.3087 11.0282L7.93377 21.4803L7.30955 23.1793L9.60229 23.9807L9.34848 24.6715L16.9608 27.3321L21.6514 14.5653C22.1709 13.1515 21.8088 11.6351 20.8436 10.5906L21.1083 9.8703C21.1206 9.83656 21.1317 9.8027 21.142 9.76873L23.4575 10.8209L24.0183 9.64693L20.9165 8.23746C20.8142 8.08165 20.688 7.94001 20.5406 7.81872ZM11.6211 11.2384L11.625 11.2007C11.6413 11.0437 11.7331 10.6882 11.7965 10.4729C12.3762 8.926 14.1348 8.12083 15.7266 8.67722L17.292 9.22434L17.2513 9.33497C15.8257 9.54387 14.5586 10.4908 14.0391 11.9046L10.8789 20.5059L9.61555 20.0644L11.6126 11.2753L11.6211 11.2384ZM9.00756 22.3969L9.38827 21.3607L10.431 21.7252L10.0503 22.7614L9.00756 22.3969ZM16.1588 25.676L11.0465 23.8891L11.6811 22.1621L16.7933 23.9489L16.1588 25.676ZM20.4014 14.1284L17.2413 22.7297L12.129 20.9429L15.2892 12.3416C15.7942 10.9669 17.3519 10.2492 18.7613 10.7419C20.1707 11.2345 20.9065 12.7537 20.4014 14.1284ZM19.2092 9.52262C19.0238 9.45782 18.8367 9.40735 18.649 9.37012L18.7661 9.05165C18.874 8.75794 19.2067 8.60463 19.5079 8.70988C19.809 8.81514 19.9662 9.13973 19.8583 9.4334L19.7413 9.75186C19.5721 9.66438 19.3947 9.58743 19.2092 9.52262Z" fill="#6984A1"/>
</svg>
