<svg width="30" height="31" viewBox="0 0 30 31" fill="none" xmlns="http://www.w3.org/2000/svg">
<path d="M14.2448 10.7113C14.6763 9.99347 15.3361 9.63456 16.2243 9.63456C17.0872 9.63456 17.7153 9.91921 18.1087 10.4885C18.502 11.0455 18.6987 11.788 18.6987 12.7163V15.2596C18.6987 16.2497 18.4513 17.048 17.9564 17.6544C17.4615 18.2485 16.7065 18.5455 15.6914 18.5455C14.6763 18.5455 13.9213 18.2485 13.4264 17.6544C12.9442 17.048 12.7031 16.2497 12.7031 15.2596V14.3871H14.0926V15.3524C14.0926 15.9465 14.2195 16.4106 14.4733 16.7448C14.727 17.0666 15.1204 17.2275 15.6533 17.2275C16.1863 17.2275 16.5796 17.0666 16.8334 16.7448C17.0872 16.4106 17.2141 15.9465 17.2141 15.3524V12.8277C17.2141 12.2336 17.0872 11.7757 16.8334 11.4539C16.5796 11.1197 16.1863 10.9526 15.6533 10.9526C15.2473 10.9526 14.911 11.0702 14.6446 11.3054C14.3781 11.5281 14.2131 11.8747 14.1497 12.345V12.642H12.7602L13.1219 5.42041H18.3751V6.71993H14.4542L14.2448 10.7113Z" fill="#6984A1"/>
<path fill-rule="evenodd" clip-rule="evenodd" d="M28.6596 2.27416H1.3404V29.6594H28.6596V2.27416ZM0 0.966797V30.9668H30V0.966797H0Z" fill="#6984A1"/>
<path fill-rule="evenodd" clip-rule="evenodd" d="M24.8726 13.8152V12.511H20.1758V13.8152L21.8475 13.8152V18.3844H23.1846V13.8152L24.8726 13.8152Z" fill="#6984A1"/>
<path fill-rule="evenodd" clip-rule="evenodd" d="M8.45198 27.6837L8.44789 27.6877L3.75174 23.1474L4.69537 22.2189L7.77883 25.2V5.1748H9.11924V25.2057L12.2086 22.2189L13.1522 23.1474L8.45607 27.6877L8.45198 27.6837Z" fill="#6984A1"/>
</svg>
