<svg width="30" height="31" viewBox="0 0 30 31" fill="none" xmlns="http://www.w3.org/2000/svg">
<path fill-rule="evenodd" clip-rule="evenodd" d="M28.6596 2.27416H1.3404V29.6594H28.6596V2.27416ZM0 0.966797V30.9668H30V0.966797H0Z" fill="#6984A1"/>
<path fill-rule="evenodd" clip-rule="evenodd" d="M6.36052 6.88321C6.03424 6.56496 5.50524 6.56496 5.17895 6.88321C4.85267 7.20145 4.85267 7.71741 5.17895 8.03565C5.17895 8.03565 5.17895 8.03565 5.17895 8.03565L11.433 14.1355L12.6146 12.9831L6.36052 6.88321ZM4.23115 5.95876C5.08089 5.12996 6.45859 5.12996 7.30833 5.95876C7.30833 5.95876 7.30833 5.95876 7.30833 5.95876L14.5102 12.9831L11.433 15.9844L4.23115 8.9601C3.38141 8.1313 3.38141 6.78756 4.23115 5.95876Z" fill="#6984A1"/>
<path fill-rule="evenodd" clip-rule="evenodd" d="M13.116 12.4966C13.918 11.7143 15.2183 11.7144 16.0204 12.4966L17.3676 13.8106L12.2845 18.7685L10.9373 17.4545C10.9373 17.4545 10.9373 17.4545 10.9373 17.4545C10.1352 16.6722 10.1352 15.4039 10.9372 14.6217L13.116 12.4966ZM15.0726 13.421C14.794 13.1493 14.3424 13.1494 14.0638 13.421L11.8851 15.5461C11.6065 15.8178 11.6065 16.2583 11.885 16.53L12.2845 16.9196L15.472 13.8106L15.0726 13.421C15.0726 13.421 15.0726 13.421 15.0726 13.421Z" fill="#6984A1"/>
<path fill-rule="evenodd" clip-rule="evenodd" d="M24.567 16.1356L16.2753 14.4508L16.5487 13.1709L26.0123 15.0939L25.9682 15.6658C25.7513 18.4818 24.2082 21.2464 22.0542 23.3474C19.9001 25.4483 17.0656 26.9533 14.1785 27.165L13.5921 27.2079L11.6205 17.9776L12.9328 17.7109L14.6602 25.7983C16.9646 25.4697 19.2752 24.2089 21.1064 22.4229C22.9375 20.6369 24.2302 18.3832 24.567 16.1356Z" fill="#6984A1"/>
<path fill-rule="evenodd" clip-rule="evenodd" d="M21.1933 23.4237L18.6318 20.9254L19.5796 20.001L22.1411 22.4993L21.1933 23.4237Z" fill="#6984A1"/>
<path fill-rule="evenodd" clip-rule="evenodd" d="M17.1706 25.8752L15.6785 22.6557L16.8999 22.1172L18.392 25.3367L17.1706 25.8752Z" fill="#6984A1"/>
<path fill-rule="evenodd" clip-rule="evenodd" d="M24.1031 19.7683L20.8022 18.3129L21.3544 17.1216L24.6552 18.577L24.1031 19.7683Z" fill="#6984A1"/>
<path fill-rule="evenodd" clip-rule="evenodd" d="M20.3999 7.30431L20.3217 7.51053L19.9257 7.89674L19.7143 7.97304L19.9257 8.04935L20.3217 8.43555L20.3999 8.64177L20.4781 8.43555L20.8741 8.04935L21.0855 7.97304L20.8741 7.89674L20.4781 7.51053L20.3999 7.30431ZM19.1715 6.77493L19.7713 5.19385H21.0284L21.6283 6.77493L23.2493 7.35998V8.5861L21.6283 9.17115L21.0284 10.7522H19.7713L19.1715 9.17115L17.5505 8.5861V7.35998L19.1715 6.77493Z" fill="#6984A1"/>
</svg>
