<svg width="31" height="32" viewBox="0 0 31 32" fill="none" xmlns="http://www.w3.org/2000/svg">
<path fill-rule="evenodd" clip-rule="evenodd" d="M29.6409 1.78893H2.1068V30.087H29.6409V1.78893ZM0.755859 0.437988V31.438H30.9918V0.437988H0.755859Z" fill="#6984A1"/>
<path fill-rule="evenodd" clip-rule="evenodd" d="M11.9492 7.34849C10.3004 7.34849 8.9578 8.69105 8.9578 10.3399V18.3064L8.36201 19.2701L8.36129 19.2713C7.94657 19.9393 7.72733 20.7083 7.72733 21.4961C7.72733 23.8235 9.62188 25.718 11.9492 25.718C14.2765 25.718 16.1711 23.8235 16.1711 21.4961C16.1711 20.7083 15.9518 19.9393 15.5371 19.2712L15.5364 19.2701L14.9406 18.3064V10.3399C14.9406 8.69105 13.598 7.34849 11.9492 7.34849ZM7.5578 10.3399C7.5578 7.91785 9.52717 5.94849 11.9492 5.94849C14.3712 5.94849 16.3406 7.91785 16.3406 10.3399V17.9086L16.7265 18.5328C16.7264 18.5325 16.7267 18.5331 16.7265 18.5328C17.2787 19.4226 17.5711 20.448 17.5711 21.4961C17.5711 24.5967 15.0497 27.118 11.9492 27.118C8.84869 27.118 6.32733 24.5967 6.32733 21.4961C6.32733 20.4479 6.61918 19.4233 7.17152 18.5334C7.1714 18.5336 7.17165 18.5332 7.17152 18.5334L7.5578 17.9086V10.3399Z" fill="#6984A1"/>
<path fill-rule="evenodd" clip-rule="evenodd" d="M10.0187 10.3399C10.0187 9.27371 10.883 8.40942 11.9492 8.40942C13.0154 8.40942 13.8797 9.27371 13.8797 10.3399V18.6078L14.6348 19.8293C14.6346 19.829 14.635 19.8296 14.6348 19.8293C14.9354 20.3131 15.1101 20.8855 15.1101 21.4961C15.1101 23.2419 13.6949 24.6571 11.9492 24.6571C10.2035 24.6571 8.78827 23.2419 8.78827 21.4961C8.78827 20.8855 8.96249 20.314 9.26306 19.8302C9.26325 19.8299 9.26344 19.8296 9.26364 19.8293L10.0187 18.6078V10.3399ZM11.9492 9.80942C11.6562 9.80942 11.4187 10.0469 11.4187 10.3399V19.0056L10.4535 20.567L10.4526 20.5685C10.2851 20.8379 10.1883 21.1548 10.1883 21.4961C10.1883 22.4687 10.9767 23.2571 11.9492 23.2571C12.9217 23.2571 13.7101 22.4687 13.7101 21.4961C13.7101 21.1548 13.6133 20.8379 13.4458 20.5685L13.4449 20.567L12.4797 19.0056V10.3399C12.4797 10.0469 12.2422 9.80942 11.9492 9.80942Z" fill="#6984A1"/>
<path fill-rule="evenodd" clip-rule="evenodd" d="M11.9492 14.1204C10.883 14.1204 10.0187 13.2561 10.0187 12.1899H11.4187C11.4187 12.4829 11.6562 12.7204 11.9492 12.7204C12.2422 12.7204 12.4797 12.4829 12.4797 12.1899H13.8797C13.8797 13.2561 13.0154 14.1204 11.9492 14.1204Z" fill="#6984A1"/>
<path fill-rule="evenodd" clip-rule="evenodd" d="M21.793 5.9292L26.1844 9.07188V16.5814H17.4016V9.07188L21.793 5.9292ZM18.8016 9.79155V15.1814H24.7844V9.79155L21.793 7.65077L18.8016 9.79155Z" fill="#6984A1"/>
<path fill-rule="evenodd" clip-rule="evenodd" d="M19.8625 11.49H23.7234V15.8814H22.3234V12.89H21.2625V15.8814H19.8625V11.49Z" fill="#6984A1"/>
</svg>
