<svg width="31" height="31" viewBox="0 0 31 31" fill="none" xmlns="http://www.w3.org/2000/svg">
<path fill-rule="evenodd" clip-rule="evenodd" d="M29.4155 2.24535H2.09626V29.6306H29.4155V2.24535ZM0.755859 0.937988V30.938H30.7559V0.937988H0.755859Z" fill="#6984A1"/>
<path d="M26.7737 21.4934V19.4423C26.7737 18.0713 25.63 16.9557 24.2242 16.9557H13.9879C13.9973 16.8079 14.002 16.659 14.002 16.5093C14.002 14.4858 13.4818 12.356 12.5747 10.666C11.5436 8.74511 10.1715 7.68726 8.71096 7.68726C7.25048 7.68726 5.87831 8.74511 4.84728 10.666C3.94018 12.356 3.41992 14.4857 3.41992 16.5092C3.41992 18.1035 3.95555 19.6075 4.92811 20.7444C5.76948 21.7278 6.85119 22.3402 8.02677 22.5116V26.3873H9.39515V22.5116C10.2354 22.3891 11.0275 22.0411 11.7184 21.4934H12.6489V22.917H11.3142V24.2517H12.6489V26.3873H14.0173V24.2517H24.0706V26.3873H25.4389V24.2517H26.7737V22.917H25.439V21.4934H26.7737ZM7.76559 15.2827L6.798 16.2264L8.02677 17.4249V21.1546C6.18885 20.7642 4.78831 18.8298 4.78831 16.5092C4.78831 14.721 5.26354 12.7681 6.05958 11.285C6.83157 9.84678 7.79797 9.02191 8.71096 9.02191C9.62403 9.02191 10.5904 9.84678 11.3624 11.285C12.1584 12.7681 12.6337 14.721 12.6337 16.5092C12.6337 16.7773 12.6147 17.04 12.5788 17.296C11.8231 17.728 11.3142 18.528 11.3142 19.4423V20.0348C10.7831 20.6025 10.1236 20.9999 9.39515 21.1546V16.872L7.76559 15.2827ZM13.8637 18.2904H24.2242C24.8754 18.2904 25.4053 18.8071 25.4053 19.4423V20.1587H12.6826V19.4423C12.6826 18.8071 13.2125 18.2904 13.8637 18.2904ZM24.0706 22.917H14.0173V21.4934H24.0706V22.917H24.0706Z" fill="#6984A1"/>
<path d="M20.7338 8.56244C22.5953 8.56244 24.3095 9.47512 25.3191 11.0038L26.4695 10.2811C25.2067 8.36918 23.0626 7.22778 20.7338 7.22778C18.405 7.22778 16.2607 8.36923 14.998 10.2811L16.1484 11.0038C17.158 9.47517 18.8722 8.56244 20.7338 8.56244Z" fill="#6984A1"/>
<path d="M22.9408 12.498L24.0912 11.7752C23.3527 10.6571 22.0991 9.9895 20.738 9.9895C19.3769 9.9895 18.1234 10.6571 17.3848 11.7752L18.5352 12.498C19.0207 11.763 19.8441 11.3242 20.738 11.3242C21.6319 11.3242 22.4554 11.763 22.9408 12.498Z" fill="#6984A1"/>
<path d="M20.0508 13.3677H21.4192V14.7023H20.0508V13.3677Z" fill="#6984A1"/>
</svg>
