<svg width="31" height="31" viewBox="0 0 31 31" fill="none" xmlns="http://www.w3.org/2000/svg">
<path fill-rule="evenodd" clip-rule="evenodd" d="M29.4155 2.24535H2.09626V29.6306H29.4155V2.24535ZM0.755859 0.937988V30.938H30.7559V0.937988H0.755859Z" fill="#6984A1"/>
<path d="M26.138 18.3665V13.508L24.2215 13.2219C24.082 12.8083 23.9104 12.4045 23.7084 12.0152L24.8565 10.4905L21.3343 7.0551L19.7711 8.17498C19.3719 7.97795 18.958 7.8105 18.5339 7.67451L18.2405 5.80518H13.2593L12.9659 7.67451C12.5418 7.8105 12.1279 7.97792 11.7288 8.17498L10.1655 7.0551L6.64329 10.4905L7.79146 12.0152C7.58946 12.4045 7.41777 12.8083 7.27834 13.2219L5.36182 13.508V18.3665L7.27838 18.6526C7.41781 19.0663 7.58946 19.47 7.7915 19.8593L6.64333 21.384L10.1655 24.8194L11.7288 23.6996C12.1279 23.8965 12.5419 24.064 12.966 24.2L13.2593 26.0694H18.2406L18.5339 24.2C18.958 24.064 19.3719 23.8966 19.7711 23.6996L21.3343 24.8194L24.8565 21.384L23.7084 19.8593C23.9103 19.47 24.082 19.0663 24.2215 18.6526L26.138 18.3665ZM23.2703 17.5936L23.1646 17.9626C22.9997 18.5383 22.7629 19.0953 22.4608 19.6179L22.2678 19.9519L23.2569 21.2653L21.2126 23.2592L19.8661 22.2945L19.5237 22.4827C18.9877 22.7773 18.4168 23.0082 17.8265 23.1692L17.4481 23.2723L17.1955 24.8821H14.3044L14.0518 23.2723L13.6734 23.1692C13.0832 23.0083 12.5122 22.7773 11.9763 22.4827L11.6339 22.2945L10.2874 23.2592L8.24298 21.2653L9.23204 19.9519L9.03909 19.618C8.73702 19.0953 8.5002 18.5384 8.33525 17.9627L8.22954 17.5936L6.57905 17.3472V14.5274L8.22954 14.281L8.33525 13.912C8.5002 13.3362 8.73698 12.7793 9.03909 12.2566L9.23204 11.9227L8.24298 10.6093L10.2872 8.61544L11.6338 9.58013L11.9762 9.39194C12.5121 9.09731 13.0831 8.86633 13.6733 8.70545L14.0517 8.60234L14.3043 6.99253H17.1954L17.448 8.60234L17.8264 8.70545C18.4166 8.86633 18.9877 9.09727 19.5235 9.39194L19.8659 9.58013L21.2125 8.61544L23.2568 10.6093L22.2677 11.9227L22.4606 12.2566C22.7627 12.7793 22.9995 13.3362 23.1645 13.912L23.2702 14.281L24.9207 14.5274V17.3472L23.2703 17.5936Z" fill="#6984A1"/>
<path fill-rule="evenodd" clip-rule="evenodd" d="M13.1839 5.72339H18.309L18.6055 7.61264C19.0003 7.74169 19.3861 7.89779 19.7594 8.07942L21.3392 6.94764L24.9632 10.4823L23.8028 12.0232C23.9891 12.3872 24.1491 12.7636 24.2814 13.1486L26.2184 13.4378V18.4366L24.2814 18.7258C24.1491 19.1108 23.989 19.4871 23.8028 19.8512L24.9632 21.3921L21.3392 24.9267L19.7594 23.795C19.3861 23.9766 19.0003 24.1327 18.6055 24.2617L18.309 26.151H13.1839L12.8875 24.2617C12.4927 24.1327 12.1068 23.9765 11.7336 23.795L10.1537 24.9267L6.52979 21.3921L7.69016 19.8512C7.50391 19.4871 7.3439 19.1108 7.21158 18.7258L5.2746 18.4366V13.4378L7.21154 13.1486C7.34386 12.7636 7.5039 12.3872 7.69012 12.0232L6.52975 10.4823L10.1537 6.94764L11.7335 8.07941C12.1068 7.89775 12.4927 7.74169 12.8874 7.61264L13.1839 5.72339ZM13.3277 5.88681L13.0375 7.73638L12.9886 7.75205C12.5686 7.88676 12.1585 8.0526 11.7631 8.2478L11.7172 8.27048L10.1704 7.16241L6.74994 10.4986L7.88601 12.0073L7.86276 12.0521C7.66266 12.4377 7.49259 12.8376 7.35448 13.2473L7.33842 13.295L5.44215 13.5781V18.2963L7.33846 18.5794L7.35452 18.627C7.49263 19.0368 7.66266 19.4367 7.8628 19.8223L7.88605 19.8671L6.74998 21.3758L10.1705 24.712L11.7172 23.6039L11.7632 23.6266C12.1586 23.8217 12.5686 23.9876 12.9887 24.1223L13.0375 24.138L13.3278 25.9876H18.1652L18.4554 24.138L18.5043 24.1223C18.9244 23.9876 19.3344 23.8218 19.7298 23.6266L19.7757 23.6039L21.3225 24.712L24.743 21.3758L23.6069 19.8671L23.6302 19.8223C23.8302 19.4367 24.0003 19.0367 24.1384 18.627L24.1545 18.5794L26.0508 18.2963V13.5781L24.1545 13.295L24.1384 13.2473C24.0003 12.8376 23.8303 12.4377 23.6302 12.0521L23.6069 12.0073L24.743 10.4986L21.3225 7.16241L19.7757 8.27048L19.7298 8.2478C19.3344 8.05264 18.9244 7.88676 18.5043 7.75205L18.4554 7.73638L18.1652 5.88681H13.3277ZM14.2289 6.91074H17.2639L17.5192 8.53777L17.8455 8.62667C18.4422 8.78933 19.0195 9.0228 19.5612 9.32068L19.8565 9.48297L21.2174 8.50798L23.3634 10.6011L22.3638 11.9285L22.5302 12.2164C22.8355 12.7448 23.0749 13.3078 23.2417 13.8899L23.3329 14.2081L25.001 14.4572V17.4173L23.333 17.6663L23.2418 17.9845C23.0751 18.5666 22.8357 19.1296 22.5303 19.658C22.5303 19.658 22.5303 19.658 22.5303 19.658L22.3639 19.946L23.3635 21.2734L21.2176 23.3665L19.8566 22.3915L19.5613 22.5538C19.0196 22.8516 18.4424 23.0851 17.8456 23.2478L17.5193 23.3367L17.264 24.9637H14.2291L13.9737 23.3367L13.6475 23.2478C13.0507 23.0851 12.4734 22.8517 11.9317 22.5538L11.6365 22.3915L10.2755 23.3665L8.12943 21.2734L9.12905 19.946L8.96266 19.658C8.6573 19.1296 8.4179 18.5666 8.25112 17.9846L8.15997 17.6663L6.49183 17.4173V14.4572L8.15997 14.2081L8.25112 13.8899C8.41789 13.3078 8.65726 12.7448 8.96266 12.2164C8.96266 12.2164 8.96266 12.2164 8.96266 12.2164L9.12905 11.9285L8.12943 10.6011L10.2754 8.50798L11.6364 9.48296L11.9316 9.32068C12.4733 9.02284 13.0506 8.78934 13.6473 8.62667L13.9736 8.53777L14.2289 6.91074ZM14.3728 7.07416L14.1229 8.66677L13.6924 8.78407C13.6924 8.78407 13.6924 8.78406 13.6924 8.78407C13.1087 8.94318 12.5439 9.17163 12.0139 9.46304L11.6244 9.67714L10.2922 8.72275L8.34963 10.6174L9.32814 11.9168L9.10863 12.2967C8.80981 12.8136 8.57563 13.3645 8.41249 13.9339C8.41249 13.9339 8.41249 13.9339 8.41249 13.9339L8.29223 14.3537L6.65938 14.5975V17.277L8.29223 17.5208L8.41249 17.9406C8.57562 18.5099 8.80985 19.0608 9.10862 19.5778L9.32813 19.9577L8.34963 21.2571L10.2923 23.1517L11.6245 22.1973L12.014 22.4114C12.544 22.7029 13.1088 22.9313 13.6925 23.0904L14.123 23.2077L14.3729 24.8003H17.1201L17.3701 23.2077L17.8005 23.0904C18.3843 22.9312 18.949 22.7028 19.4791 22.4114L19.8686 22.1973L21.2008 23.1517L23.1433 21.257L22.1648 19.9577L22.3843 19.5778C22.6832 19.0608 22.9173 18.5099 23.0805 17.9406L23.2007 17.5207L24.8335 17.277V14.5975L23.2006 14.3537L23.0804 13.9339C22.9172 13.3645 22.683 12.8137 22.3842 12.2967L22.1647 11.9168L23.1432 10.6174L21.2007 8.72275L19.8685 9.67714L19.479 9.46304C18.9489 9.1716 18.3841 8.94318 17.8004 8.78407L17.3699 8.66677L17.12 7.07416H14.3728Z" fill="#6984A1"/>
<path d="M15.7495 9.84277C12.3041 9.84277 9.5011 12.5767 9.5011 15.9372C9.5011 19.2977 12.3041 22.0316 15.7495 22.0316C19.1949 22.0316 21.9979 19.2977 21.9979 15.9372C21.9979 12.5767 19.1949 9.84277 15.7495 9.84277ZM18.2241 20.2085C17.4929 20.613 16.6484 20.8444 15.7495 20.8444C14.7346 20.8444 13.7892 20.5495 12.9979 20.0433V18.8915C12.9979 17.9972 13.7439 17.2696 14.6608 17.2696H16.5612C17.4782 17.2696 18.2241 17.9972 18.2241 18.8915V20.2085ZM14.427 14.9275C14.427 14.2908 14.9581 13.7727 15.611 13.7727C16.2638 13.7727 16.795 14.2908 16.795 14.9275C16.795 15.5643 16.2638 16.0824 15.611 16.0824C14.9581 16.0824 14.427 15.5643 14.427 14.9275ZM19.4413 19.2673V18.8915C19.4413 17.6926 18.6669 16.6672 17.5807 16.2647C17.8523 15.8853 18.0122 15.4244 18.0122 14.9275C18.0122 13.6361 16.935 12.5855 15.611 12.5855C14.2869 12.5855 13.2098 13.6361 13.2098 14.9275C13.2098 15.4244 13.3697 15.8853 13.6413 16.2647C12.555 16.6672 11.7806 17.6926 11.7806 18.8915V18.9496C11.1153 18.1175 10.7183 17.0718 10.7183 15.9372C10.7183 13.2314 12.9753 11.03 15.7495 11.03C18.5237 11.03 20.7806 13.2314 20.7806 15.9372C20.7807 17.2214 20.2721 18.3917 19.4413 19.2673Z" fill="#6984A1"/>
<path fill-rule="evenodd" clip-rule="evenodd" d="M9.41199 15.9374C9.41199 12.5317 12.2525 9.76123 15.7442 9.76123C19.2358 9.76123 22.0763 12.5317 22.0763 15.9374C22.0763 19.343 19.2358 22.1135 15.7442 22.1135C12.2525 22.1135 9.41199 19.343 9.41199 15.9374ZM15.7442 9.92465C12.345 9.92465 9.57954 12.622 9.57954 15.9374C9.57954 19.2527 12.345 21.9501 15.7442 21.9501C19.1433 21.9501 21.9088 19.2527 21.9088 15.9374C21.9088 12.622 19.1433 9.92465 15.7442 9.92465ZM15.7441 11.1119C13.0162 11.1119 10.7967 13.2767 10.7967 15.9374C10.7967 16.9686 11.1302 17.925 11.6973 18.7101C11.7688 17.5904 12.497 16.6421 13.509 16.2265C13.2635 15.8509 13.1207 15.4053 13.1207 14.9277C13.1207 13.5912 14.2353 12.504 15.6056 12.504C16.9759 12.504 18.0906 13.5912 18.0906 14.9277C18.0906 15.4053 17.9478 15.8509 17.7023 16.2265C18.7686 16.6644 19.5197 17.6937 19.5197 18.8917V19.052C20.2504 18.2107 20.6916 17.1234 20.6915 15.9374C20.6915 13.2767 18.4721 11.1119 15.7441 11.1119ZM10.6292 15.9374C10.6292 13.1864 12.9237 10.9485 15.7441 10.9485C18.5646 10.9485 20.8591 13.1864 20.8591 15.9374C20.8591 17.243 20.3419 18.4329 19.4975 19.3229L19.3522 19.476V18.8917C19.3522 17.7279 18.6005 16.7321 17.5456 16.3413L17.4451 16.3041L17.5066 16.2181C17.7688 15.8518 17.9231 15.4072 17.9231 14.9277C17.9231 13.6814 16.8834 12.6674 15.6056 12.6674C14.3279 12.6674 13.2882 13.6814 13.2882 14.9277C13.2882 15.4072 13.4425 15.8518 13.7047 16.2181L13.7662 16.3041L13.6657 16.3413C12.6108 16.7321 11.8591 17.7279 11.8591 18.8917V19.1874L11.7092 19C11.0328 18.1541 10.6292 17.0909 10.6292 15.9374ZM15.6056 13.8546C14.9991 13.8546 14.5054 14.3361 14.5054 14.9277C14.5054 15.5193 14.9991 16.0008 15.6056 16.0008C16.2122 16.0008 16.7059 15.5193 16.7059 14.9277C16.7059 14.3361 16.2122 13.8546 15.6056 13.8546ZM14.3379 14.9277C14.3379 14.2458 14.9065 13.6911 15.6056 13.6911C16.3048 13.6911 16.8735 14.2458 16.8735 14.9277C16.8735 15.6096 16.3048 16.1642 15.6056 16.1642C14.9065 16.1642 14.3379 15.6096 14.3379 14.9277ZM14.6554 17.3515C13.7848 17.3515 13.0764 18.0425 13.0764 18.8917V19.9991C13.8466 20.4822 14.7623 20.7628 15.7442 20.7628C16.6108 20.7628 17.4259 20.5442 18.135 20.1608V18.8917C18.135 18.0425 17.4265 17.3515 16.5559 17.3515H14.6554ZM12.9088 18.8917C12.9088 17.9522 13.6923 17.1881 14.6554 17.1881H16.5559C17.5191 17.1881 18.3025 17.9523 18.3025 18.8917V20.2562L18.2601 20.2797C17.5167 20.691 16.658 20.9262 15.7442 20.9262C14.7124 20.9262 13.7511 20.6264 12.9466 20.1118L12.9088 20.0876V18.8917Z" fill="#6984A1"/>
</svg>
