<svg width="30" height="31" viewBox="0 0 30 31" fill="none" xmlns="http://www.w3.org/2000/svg">
<path fill-rule="evenodd" clip-rule="evenodd" d="M28.6596 2.27416H1.3404V29.6594H28.6596V2.27416ZM0 0.966797V30.9668H30V0.966797H0Z" fill="#6984A1"/>
<path d="M20.1179 14.3731V9.38113C20.1179 7.82532 18.8202 6.55957 17.2251 6.55957H12.7745C11.1794 6.55957 9.88168 7.82532 9.88168 9.38113V14.3731H3.6064V25.1385H7.16684V17.8458H9.88168V18.931C9.88168 19.7688 10.5805 20.4503 11.4394 20.4503H14.3322V21.4487H12.7745C11.9156 21.4487 11.2168 22.1303 11.2168 22.968V23.6974C11.0787 23.8504 10.9943 24.0505 10.9943 24.2703C10.9943 24.7498 11.3928 25.1385 11.8844 25.1385C12.376 25.1385 12.7745 24.7498 12.7745 24.2703C12.7745 24.0505 12.6901 23.8503 12.552 23.6974V22.968C12.552 22.8484 12.6518 22.751 12.7745 22.751H14.3322V23.6974C14.1941 23.8504 14.1097 24.0505 14.1097 24.2703C14.1097 24.7498 14.5082 25.1385 14.9998 25.1385C15.4914 25.1385 15.8899 24.7498 15.8899 24.2703C15.8899 24.0505 15.8055 23.8503 15.6674 23.6974V22.751H17.2251C17.3478 22.751 17.4476 22.8484 17.4476 22.968V23.6974C17.3095 23.8504 17.2251 24.0505 17.2251 24.2703C17.2251 24.7498 17.6236 25.1385 18.1152 25.1385C18.6068 25.1385 19.0053 24.7498 19.0053 24.2703C19.0053 24.0505 18.9209 23.8503 18.7828 23.6974V22.968C18.7828 22.1303 18.084 21.4487 17.2251 21.4487H15.6674V20.4503H18.5603C19.4192 20.4503 20.1179 19.7688 20.1179 18.931V17.8458H22.8328V25.1385H26.3932V14.3731H20.1179ZM11.2168 9.38113C11.2168 8.54339 11.9156 7.86183 12.7745 7.86183H17.2251C18.084 7.86183 18.7828 8.54339 18.7828 9.38113V14.3731H11.2168V9.38113ZM5.83168 23.8362H4.94157V17.8458H5.83168V23.8362ZM18.7828 18.931C18.7828 19.0507 18.683 19.1481 18.5603 19.1481H11.4394C11.3167 19.1481 11.2168 19.0507 11.2168 18.931V17.8458H18.7828V18.931ZM25.0581 23.8362H24.168V17.8458H25.0581V23.8362ZM25.0581 16.5436H4.94157V15.6754H25.0581V16.5436Z" fill="#6984A1"/>
<path d="M17.0376 10.4663H12.9431V11.7686H17.0376V10.4663Z" fill="#6984A1"/>
</svg>
