<svg width="30" height="31" viewBox="0 0 30 31" fill="none" xmlns="http://www.w3.org/2000/svg">
<path fill-rule="evenodd" clip-rule="evenodd" d="M0 30.9668H30V0.966797H0V30.9668ZM1.3388 29.628V2.30559H28.6612V29.628H1.3388Z" fill="#6984A1"/>
<path fill-rule="evenodd" clip-rule="evenodd" d="M3.56445 27.3989H26.4289V4.53449H3.56445V27.3989ZM4.90325 26.0601V5.87329H25.0901V26.0601H4.90325Z" fill="#6984A1"/>
<path fill-rule="evenodd" clip-rule="evenodd" d="M9.54877 23.7144H10.8876V16.8146H16.331C18.6033 16.8146 20.4454 14.9725 20.4454 12.7001C20.4454 10.4277 18.6033 8.58556 16.331 8.58556H9.54877V23.7144ZM10.8876 15.4758V9.92435H16.331C17.8639 9.92435 19.1066 11.1671 19.1066 12.7001C19.1066 14.2331 17.8639 15.4758 16.331 15.4758H10.8876Z" fill="#6984A1"/>
</svg>
