<svg width="97" height="98" viewBox="0 0 97 98" fill="none" xmlns="http://www.w3.org/2000/svg">
<path fill-rule="evenodd" clip-rule="evenodd" d="M37 21.4875H61V31.4875H37V21.4875ZM41 25.4875V27.4875H57V25.4875H41Z" fill="white"/>
<path fill-rule="evenodd" clip-rule="evenodd" d="M49 3.93799L94 39.5194V94.4877H4V39.5194L49 3.93799ZM8 41.4559V90.4877H90V41.4559L49 9.03733L8 41.4559Z" fill="white"/>
<path fill-rule="evenodd" clip-rule="evenodd" d="M14.5 38.9875H83.5V92.4875H79.5V52.9875H18.5V92.4875H14.5V38.9875ZM18.5 48.9875H79.5V42.9875H18.5V48.9875Z" fill="white"/>
<path fill-rule="evenodd" clip-rule="evenodd" d="M58 60.4875H78V92.4875H74V79.4875H70V82.9875H66V79.4875H62V92.4875H58V79.4875H54.5V82.9875H50.5V79.4875H47V92.4875H43V75.4875H58V60.4875ZM62 75.4875H74V64.4875H70V67.9875H66V64.4875H62V75.4875Z" fill="white"/>
</svg>
