<svg width="97" height="98" viewBox="0 0 97 98" fill="none" xmlns="http://www.w3.org/2000/svg">
<path fill-rule="evenodd" clip-rule="evenodd" d="M4 4.92139H39V39.9214H4V4.92139ZM8 8.92139V35.9214H35V8.92139H8Z" fill="#6984A1"/>
<path fill-rule="evenodd" clip-rule="evenodd" d="M46 4.92139H81V39.9214H46V4.92139ZM50 8.92139V35.9214H77V8.92139H50Z" fill="#6984A1"/>
<path fill-rule="evenodd" clip-rule="evenodd" d="M46 49.9214H81V84.9214H46V49.9214ZM50 53.9214V80.9214H77V53.9214H50Z" fill="#6984A1"/>
<path fill-rule="evenodd" clip-rule="evenodd" d="M4 59.9214H39V94.9214H4V59.9214ZM8 63.9214V90.9214H35V63.9214H8Z" fill="#6984A1"/>
<path fill-rule="evenodd" clip-rule="evenodd" d="M20 20.9214H94V94.9214H20V20.9214ZM24 24.9214V90.9214H90V24.9214H24Z" fill="#6984A1"/>
</svg>
