<svg width="97" height="98" viewBox="0 0 97 98" fill="none" xmlns="http://www.w3.org/2000/svg">
<path fill-rule="evenodd" clip-rule="evenodd" d="M11 4.92139H68.3631L86 23.6272V94.9214H11V4.92139ZM15 8.92139V90.9214H82V25.2156L66.6369 8.92139H15Z" fill="#6984A1"/>
<path fill-rule="evenodd" clip-rule="evenodd" d="M50.4142 34.8358L34 51.25L24.5858 41.8358L27.4142 39.0073L34 45.5931L47.5858 32.0073L50.4142 34.8358Z" fill="#6984A1"/>
<path fill-rule="evenodd" clip-rule="evenodd" d="M50.4142 57.3358L34 73.75L24.5858 64.3358L27.4142 61.5073L34 68.0931L47.5858 54.5073L50.4142 57.3358Z" fill="#6984A1"/>
<path fill-rule="evenodd" clip-rule="evenodd" d="M71 45.9214H52.5V41.9214H71V45.9214Z" fill="#6984A1"/>
<path fill-rule="evenodd" clip-rule="evenodd" d="M71 69.9214H52.5V65.9214H71V69.9214Z" fill="#6984A1"/>
<path fill-rule="evenodd" clip-rule="evenodd" d="M65 6.9215L68.434 5.52734L85.934 23.5273L84.5 26.9215H65V6.9215ZM69 11.8478V22.9215H79.7661L69 11.8478Z" fill="#6984A1"/>
</svg>
