<svg width="96" height="98" viewBox="0 0 96 98" fill="none" xmlns="http://www.w3.org/2000/svg">
<path fill-rule="evenodd" clip-rule="evenodd" d="M70.8276 58.6714H64.5625V76.7748H61.75V79.861H64.5625V84.1714H68.129V79.861H75.375V76.7748H68.129V74.3142H70.5917C72.8242 74.3142 74.5133 73.8081 75.6021 72.7431C76.7141 71.6571 77.25 70.0706 77.25 68.0285V65.0285C77.25 63.0825 76.7542 61.5278 75.7316 60.3975C74.6952 59.2277 73.0387 58.6714 70.8276 58.6714ZM68.129 71.3142V61.7071H70.8276C71.9194 61.7071 72.6291 61.9843 73.033 62.4735L73.0373 62.4785C73.4797 62.9862 73.7228 63.7736 73.7228 64.8857V68.2071C73.7228 69.3909 73.4536 70.176 72.9769 70.6311C72.492 71.0703 71.7141 71.3142 70.5917 71.3142H68.129Z" fill="#6984A1"/>
<path fill-rule="evenodd" clip-rule="evenodd" d="M45.007 3.49902L86.1331 31.7732L83.8669 35.0694L80 32.4108V49.9213H76V29.6608L44.993 8.34351L14 29.3881V83.9213H32V52.4213H53.5V56.4213H36V83.9213H51.5V87.9213H10V32.1042L5.6235 35.0759L3.3765 31.7667L45.007 3.49902Z" fill="#6984A1"/>
<path fill-rule="evenodd" clip-rule="evenodd" d="M69 50.9214C57.9543 50.9214 49 59.8757 49 70.9214C49 81.9671 57.9543 90.9214 69 90.9214C80.0457 90.9214 89 81.9671 89 70.9214C89 59.8757 80.0457 50.9214 69 50.9214ZM45 70.9214C45 57.6666 55.7452 46.9214 69 46.9214C82.2548 46.9214 93 57.6666 93 70.9214C93 84.1762 82.2548 94.9214 69 94.9214C55.7452 94.9214 45 84.1762 45 70.9214Z" fill="#6984A1"/>
</svg>
