<svg width="100" height="101" viewBox="0 0 100 101" fill="none" xmlns="http://www.w3.org/2000/svg">
<path fill-rule="evenodd" clip-rule="evenodd" d="M3 3.92139H41C71.9279 3.92139 97 28.9934 97 59.9214V97.9214H3V3.92139ZM7 7.92139V93.9214H93V59.9214C93 31.2026 69.7188 7.92139 41 7.92139H7Z" fill="#6984A1"/>
<path fill-rule="evenodd" clip-rule="evenodd" d="M42.4142 7.33575L6.41421 43.3358L3.58578 40.5073L39.5858 4.50732L42.4142 7.33575Z" fill="#6984A1"/>
<path fill-rule="evenodd" clip-rule="evenodd" d="M64.9142 11.8358L6.91421 69.8358L4.08578 67.0073L62.0858 9.00732L64.9142 11.8358Z" fill="#6984A1"/>
<path fill-rule="evenodd" clip-rule="evenodd" d="M81.4142 22.3358L6.41421 97.3358L3.58578 94.5073L78.5858 19.5073L81.4142 22.3358Z" fill="#6984A1"/>
<path fill-rule="evenodd" clip-rule="evenodd" d="M92.9142 39.3358L34.9142 97.3358L32.0858 94.5073L90.0858 36.5073L92.9142 39.3358Z" fill="#6984A1"/>
<path fill-rule="evenodd" clip-rule="evenodd" d="M96.4142 66.8358L65.9142 97.3358L63.0858 94.5073L93.5858 64.0073L96.4142 66.8358Z" fill="#6984A1"/>
</svg>
