<svg width="97" height="98" viewBox="0 0 97 98" fill="none" xmlns="http://www.w3.org/2000/svg">
<path fill-rule="evenodd" clip-rule="evenodd" d="M48.5725 50.9831L6.9955 92.5601L4.87418 90.4388L46.4512 48.8618L48.5725 50.9831Z" fill="#6984A1"/>
<path fill-rule="evenodd" clip-rule="evenodd" d="M49.5508 72.0159L27.5394 94.0272L25.4181 91.9059L47.4294 69.8945L49.5508 72.0159Z" fill="#6984A1"/>
<path fill-rule="evenodd" clip-rule="evenodd" d="M28.0286 50.9831L6.01722 72.9945L3.8959 70.8732L25.9073 48.8618L28.0286 50.9831Z" fill="#6984A1"/>
<path d="M3 94.9214H49.9575V47.9658H3V94.9214ZM6.91313 51.8788H46.0444V91.0084H6.91313V51.8788Z" fill="#6984A1"/>
<path d="M53.8707 45.0292H73.4363V41.1178H60.5298L86.557 15.1068L83.7904 12.3442L57.7838 38.3285V25.4644H53.8707V45.0292Z" fill="#6984A1"/>
<path fill-rule="evenodd" clip-rule="evenodd" d="M2.95656 2.92139H95.002V94.9668H2.95656V2.92139ZM6.95656 6.92139V90.9668H91.002V6.92139H6.95656Z" fill="#6984A1"/>
</svg>
